<svg width="61" height="63" viewBox="0 0 61 63" fill="none" xmlns="http://www.w3.org/2000/svg">
<path d="M45.6019 48.2136V58.8738C45.6019 60.6505 43.9708 61.9903 42.2232 61.6408L3.66014 52.699C2.43684 52.4077 1.56305 51.3301 1.56305 50.0485V17.5145" stroke="#1A1A1A" stroke-width="2" stroke-miterlimit="10" stroke-linecap="round" stroke-linejoin="round"/>
<path d="M34.9126 9.12612C34.9126 7.23292 33.0776 5.86399 31.2718 6.44651L2.72812 15.9999C1.09705 16.4951 1.21356 18.097 2.87375 18.4174L41.2621 26.3397C43.7961 26.864 45.6019 29.0776 45.6019 31.6698V40.7863" stroke="#1A1A1A" stroke-width="2" stroke-miterlimit="10" stroke-linecap="round" stroke-linejoin="round"/>
<path d="M17.4077 21.4466L45.4271 1.75726L59.7863 22.1747L54.0193 26.2524" stroke="#1A1A1A" stroke-width="2" stroke-miterlimit="10" stroke-linecap="round" stroke-linejoin="round"/>
<path d="M26.3495 23.2815L49.2718 14.2233L58.4466 37.4369L47.4951 41.7767" stroke="#1A1A1A" stroke-width="2" stroke-miterlimit="10" stroke-linecap="round" stroke-linejoin="round"/>
<path d="M47.4951 48.5922L37.1553 46.466V39.0679L47.4951 41.1942V48.5922Z" stroke="#1A1A1A" stroke-width="2" stroke-miterlimit="10" stroke-linecap="round" stroke-linejoin="round"/>
</svg>
