<svg width="61" height="62" viewBox="0 0 61 62" fill="none" xmlns="http://www.w3.org/2000/svg">
<path d="M15.2621 23.301C15.2621 23.301 28.7184 16.6894 27.2621 5.76707C25.8058 -5.15526 44.4466 6.11658 36.1456 22.1069H55.3689C57.9029 22.1069 59.9417 24.1457 59.9417 26.6797V27.1457C59.9417 29.6797 57.9029 31.7185 55.3689 31.7185H50.7961H54.2913C56.8252 31.7185 58.8641 33.7574 58.8641 36.2913V37.0195C58.8641 39.5535 56.8252 41.5923 54.2913 41.5923H48.7573H51.7573C54.2913 41.5923 56.3301 43.6311 56.3301 46.1651V46.3981C56.3301 48.9321 54.2913 50.9709 51.7573 50.9709H46.9515H48.1456C50.6796 50.9709 52.7184 53.0098 52.7184 55.5438C52.7184 58.0777 50.6796 60.1166 48.1456 60.1166H40.3689C34.9806 60.1166 29.6505 59.4758 24.4078 58.2234L15.233 56.0098V23.301H15.2621Z" stroke="#1A1A1A" stroke-width="2" stroke-miterlimit="10" stroke-linecap="round" stroke-linejoin="round"/>
<path d="M15.2621 60.7864H3.9029C2.6796 60.7864 1.68931 59.7961 1.68931 58.5728V23.1262C1.68931 21.9029 2.6796 20.9126 3.9029 20.9126H13.0485C14.2718 20.9126 15.2621 21.9029 15.2621 23.1262V60.7864Z" stroke="#1A1A1A" stroke-width="2" stroke-miterlimit="10" stroke-linecap="round" stroke-linejoin="round"/>
</svg>
