<svg width="62" height="55" viewBox="0 0 62 55" fill="none" xmlns="http://www.w3.org/2000/svg">
<path d="M31 1.94174V10.3592" stroke="#1A1A1A" stroke-width="2" stroke-miterlimit="10" stroke-linecap="round" stroke-linejoin="round"/>
<path d="M2.68933 24.1067L11.1068 25.7378" stroke="#1A1A1A" stroke-width="2" stroke-miterlimit="10" stroke-linecap="round" stroke-linejoin="round"/>
<path d="M50.8932 25.7378L59.3107 24.1067" stroke="#1A1A1A" stroke-width="2" stroke-miterlimit="10" stroke-linecap="round" stroke-linejoin="round"/>
<path d="M12.7379 8.40775L14.8058 10.8835" stroke="#1A1A1A" stroke-width="2" stroke-miterlimit="10" stroke-linecap="round" stroke-linejoin="round"/>
<path d="M49.3787 8.49512L47.3398 10.9417" stroke="#1A1A1A" stroke-width="2" stroke-miterlimit="10" stroke-linecap="round" stroke-linejoin="round"/>
<path d="M6.79612 40.4175L3.91263 41.6408H3.82525C2.54369 38.3786 1.84467 34.7961 1.84467 31.0971C1.84467 15.0194 14.8932 1.97086 30.9709 1.97086C47.0485 1.97086 60.0971 15.0194 60.0971 31.0971C60.0971 34.7961 59.3981 38.3204 58.1748 41.5534L58.0583 41.6408L55.1748 40.4175" stroke="#1A1A1A" stroke-width="2" stroke-miterlimit="10" stroke-linecap="round" stroke-linejoin="round"/>
<path d="M48.7087 17.4076L32.0194 30.7766C30.9709 31.6212 29.4563 31.3882 28.6991 30.3105C27.9418 29.2038 28.2622 27.7183 29.3981 27.0193L47.7185 15.9805C48.1262 15.7475 48.6214 15.864 48.8835 16.2426C49.1456 16.6212 49.0874 17.1455 48.7087 17.4076Z" stroke="#1A1A1A" stroke-width="2" stroke-miterlimit="10" stroke-linecap="round" stroke-linejoin="round"/>
<path d="M40.0291 47.2913H19.932V53.4369H40.0291V47.2913Z" stroke="#1A1A1A" stroke-width="2" stroke-miterlimit="10" stroke-linecap="round" stroke-linejoin="round"/>
</svg>
