<svg width="18" height="18" viewBox="0 0 18 18" fill="none" xmlns="http://www.w3.org/2000/svg">
<path d="M9.17204 17.3544C13.6853 17.3544 17.3441 13.6934 17.3441 9.17721C17.3441 4.66106 13.6853 1 9.17204 1C4.65875 1 1 4.66106 1 9.17721C1 13.6934 4.65875 17.3544 9.17204 17.3544Z" stroke="white" stroke-miterlimit="10" stroke-linecap="round" stroke-linejoin="round"/>
<path d="M9.17201 17.3544C11.6662 17.3544 13.6881 13.6934 13.6881 9.17721C13.6881 4.66106 11.6662 1 9.17201 1C6.67782 1 4.65588 4.66106 4.65588 9.17721C4.65588 13.6934 6.67782 17.3544 9.17201 17.3544Z" stroke="white" stroke-miterlimit="10" stroke-linecap="round" stroke-linejoin="round"/>
<path d="M16.0968 13.524C14.6559 12.8569 12.0968 12.405 9.18279 12.405C6.25806 12.405 3.69892 12.8569 2.25806 13.5348" stroke="white" stroke-miterlimit="10" stroke-linecap="round" stroke-linejoin="round"/>
<path d="M2.21497 4.89502C3.64507 5.52983 6.23647 5.94945 9.18271 5.94945C12.1289 5.94945 14.6988 5.52983 16.1397 4.89502" stroke="white" stroke-miterlimit="10" stroke-linecap="round" stroke-linejoin="round"/>
<path d="M9.18274 1V17.3544" stroke="white" stroke-miterlimit="10" stroke-linecap="round" stroke-linejoin="round"/>
<path d="M1.01074 9.17725H17.3548" stroke="white" stroke-miterlimit="10" stroke-linecap="round" stroke-linejoin="round"/>
</svg>
