<svg width="13" height="20" viewBox="0 0 13 20" fill="none" xmlns="http://www.w3.org/2000/svg">
<path d="M11.1364 15.4545H1.59091V2.72727H11.1364V15.4545ZM8.18182 18.1818H4.54545V17.2727H8.18182V18.1818ZM10 0H2.72727C2.00395 0 1.31026 0.287337 0.7988 0.7988C0.287337 1.31026 0 2.00396 0 2.72727V17.2727C0 17.996 0.287337 18.6897 0.7988 19.2012C1.31026 19.7127 2.00395 20 2.72727 20H10C10.7233 20 11.417 19.7127 11.9285 19.2012C12.4399 18.6897 12.7273 17.996 12.7273 17.2727V2.72727C12.7273 2.00396 12.4399 1.31026 11.9285 0.7988C11.417 0.287337 10.7233 0 10 0V0Z" fill="white"/>
</svg>
