<svg width="12" height="18" viewBox="0 0 12 18" fill="none" xmlns="http://www.w3.org/2000/svg">
<path d="M10.0227 13.9091H1.43182V2.45455H10.0227V13.9091ZM7.36364 16.3636H4.09091V15.5455H7.36364V16.3636ZM9 0H2.45455C1.80356 0 1.17924 0.258603 0.71892 0.71892C0.258603 1.17924 0 1.80356 0 2.45455V15.5455C0 16.1964 0.258603 16.8208 0.71892 17.2811C1.17924 17.7414 1.80356 18 2.45455 18H9C9.65098 18 10.2753 17.7414 10.7356 17.2811C11.1959 16.8208 11.4545 16.1964 11.4545 15.5455V2.45455C11.4545 1.80356 11.1959 1.17924 10.7356 0.71892C10.2753 0.258603 9.65098 0 9 0V0Z" fill="#1A1A1A"/>
</svg>
