<svg width="60" height="60" viewBox="0 0 60 60" fill="none" xmlns="http://www.w3.org/2000/svg">
<path d="M37.2048 12.6692H27.4597V31.3248H37.2048C40.315 31.3248 42.8031 30.4895 44.6 28.8188C46.397 27.1482 47.2264 24.851 47.2264 21.997C47.2264 19.0733 46.3279 16.7762 44.6 15.1752C42.8031 13.5045 40.3841 12.6692 37.2048 12.6692Z" fill="white"/>
<path d="M0.436096 0V59.5169H59.5978V0H0.436096ZM12.462 49.9803C10.4577 49.9803 8.79891 48.3097 8.79891 46.1517C8.79891 44.133 10.4577 42.4624 12.462 42.4624C14.6045 42.4624 16.2632 44.133 16.2632 46.1517C16.2632 48.3097 14.6045 49.9803 12.462 49.9803ZM47.572 31.2551C45.153 33.6218 41.9737 34.8052 38.1033 34.8052H27.5289V48.3097C27.5289 49.3538 26.6995 50.2587 25.5937 50.2587C24.5569 50.2587 23.6585 49.4234 23.6585 48.3097V9.25819H38.1033C41.9737 9.25819 45.153 10.4416 47.572 12.8083C49.991 15.1751 51.1659 18.2379 51.1659 22.0665C51.1659 25.8951 49.991 28.8883 47.572 31.2551Z" fill="white"/>
</svg>
